#!OML:ASF F:\VICON\USERDATA\INSTALL\rory3\rory3.ASF
:FULLY-SPECIFIED
:DEGREES
153
root 0.149765 18.2364 13.3463 -173.541 -1.21643 -181.578
lowerback 7.71869 0.982384 -1.68546
upperback 0.495027 1.17516 2.17631
thorax -3.89838 0.598466 3.07964
lowerneck -17.1064 2.57617 -9.36967
upperneck 39.6766 2.4302 1.54082
head 17.2449 -1.62605 2.39309
rclavicle 9.54166e-015 -1.03368e-014
rhumerus -31.4106 -10.4995 -75.9491
rradius 35.176
rwrist 17.054
rhand -20.5251 1.6067
rfingers 7.12502
rthumb 5.8329 -28.293
lclavicle 9.54166e-015 -1.03368e-014
lhumerus -32.0804 15.2494 79.7925
lradius 26.7533
lwrist -8.26541
lhand -13.4784 25.9584
lfingers 7.12502
lthumb 12.632 55.5564
rfemur -7.70765 1.80466 23.6538
rtibia 10.572
rfoot -7.53302 -4.33224
rtoes 18.2719
lfemur -57.1249 4.53964 -24.7513
ltibia 88.9244
lfoot -20.861 -4.65794
ltoes -25.0265
154
root 0.151182 18.2423 13.3353 -173.47 -1.22425 -181.468
lowerback 7.75378 1.04594 -1.56689
upperback 0.55043 1.26615 2.20881
thorax -3.8647 0.638869 3.03622
lowerneck -17.0601 2.48997 -9.42961
upperneck 39.5045 2.36918 1.51087
head 17.1447 -1.63871 2.38087
rclavicle -6.95746e-015 -7.95139e-016
rhumerus -31.3004 -10.424 -75.9576
rradius 35.1361
rwrist 17.0329
rhand -20.4966 1.4956
rfingers 7.12502
rthumb 5.86035 -28.4034
lclavicle -6.95746e-015 -7.95139e-016
lhumerus -32.2463 14.9893 79.8138
lradius 26.8514
lwrist -8.00421
lhand -13.4403 26.3092
lfingers 7.12502
lthumb 12.6688 55.905
rfemur -7.27814 1.78954 23.7792
rtibia 9.60175
rfoot -7.10716 -4.47523
rtoes 18.8251
lfemur -58.1105 4.48735 -24.7636
ltibia 89.3752
lfoot -21.19 -4.96107
ltoes -25.1943
155
root 0.153064 18.2501 13.3215 -173.466 -1.25573 -181.494
lowerback 7.82682 1.11539 -1.59098
upperback 0.570227 1.35483 2.20898
thorax -3.89147 0.682867 3.03932
lowerneck -16.8322 2.42117 -9.58776
upperneck 39.3175 2.2644 1.6359
head 16.9866 -1.66552 2.44435
rclavicle 7.15625e-015 1.19271e-014
rhumerus -31.4422 -10.326 -75.9108
rradius 35.2134
rwrist 17.026
rhand -20.3968 1.62586
rfingers 7.12502
rthumb 5.95673 -28.2704
lclavicle 7.15625e-015 1.19271e-014
lhumerus -32.5555 14.762 79.806
lradius 27.0668
lwrist -7.82517
lhand -13.3245 26.601
lfingers 7.12502
lthumb 12.7803 56.1899
rfemur -6.75189 1.72852 23.7547
rtibia 8.63667
rfoot -6.76621 -4.63
rtoes 19.0183
lfemur -58.883 4.38623 -24.9197
ltibia 89.6299
lfoot -21.5797 -4.96197
ltoes -25.9862
156
root 0.154853 18.2577 13.3076 -173.491 -1.2257 -181.49
lowerback 7.92374 1.19269 -1.57864
upperback 0.636853 1.45366 2.17891
thorax -3.8819 0.729393 2.98891
lowerneck -16.7568 2.38661 -9.65988
upperneck 39.2227 2.20218 1.75954
head 16.9159 -1.66849 2.50254
rclavicle -1.05356e-014 -7.15625e-015
rhumerus -31.4529 -10.2393 -75.9699
rradius 35.2514
rwrist 16.834
rhand -20.4266 1.91118
rfingers 7.12502
rthumb 5.92799 -27.9859
lclavicle -1.05356e-014 -7.15625e-015
lhumerus -32.6672 14.6904 79.6926
lradius 27.1022
lwrist -7.77631
lhand -13.079 26.6298
lfingers 7.12502
lthumb 13.0171 56.2037
rfemur -6.23727 1.73183 23.768
rtibia 7.73518
rfoot -6.37792 -4.81594
rtoes 18.5965
lfemur -59.5701 4.3221 -25.0252
ltibia 89.7575
lfoot -21.8898 -5.0176
ltoes -25.9118
157
root 0.156726 18.2626 13.2973 -173.447 -1.18541 -181.459
lowerback 8.04319 1.26175 -1.51662
upperback 0.684599 1.54592 2.12781
thorax -3.90197 0.772506 2.88862
lowerneck -16.6929 2.33177 -9.67518
upperneck 39.0885 2.12505 1.81812
head 16.8318 -1.67324 2.51905
rclavicle -1.5704e-014 -1.35174e-014
rhumerus -31.4012 -10.1864 -76.0975
rradius 35.259
rwrist 16.688
rhand -20.4927 2.13656
rfingers 7.12502
rthumb 5.86416 -27.7623
lclavicle -1.5704e-014 -1.35174e-014
lhumerus -32.7239 14.7297 79.51
lradius 27.0831
lwrist -7.83489
lhand -12.9988 26.4308
lfingers 7.12502
lthumb 13.0944 55.9997
rfemur -5.89265 1.75294 23.8085
rtibia 7.00717
rfoot -6.03565 -4.93615
rtoes 18.5987
lfemur -60.3609 4.25885 -25.1
ltibia 89.8133
lfoot -21.8995 -5.65967
ltoes -24.1015
